name rise35.5848peak51.9257fall54.8793.mot
datacolumns 19
datarows 17
range 6.80164100000000 6.82830300000000
endheader
time	ground_force1_vx	ground_force1_vy	ground_force1_vz	ground_force1_px	ground_force1_py	ground_force1_pz	ground_force2_vx	ground_force2_vy	ground_force2_vz	ground_force2_px	ground_force2_py	ground_force2_pz	ground_torque1_x	ground_torque1_y	ground_torque1_z	ground_torque2_x	ground_torque2_y	ground_torque2_z	
6.80164100000000	-39.69146600000000	798.46442000000002	41.84613300000000	0.09422300000000	0.00000000000000	0.06901100000000	-8.95619400000000	43.55044500000000	5.96230400000000	0.31970400000000	0.00000000000000	-0.09246900000000	0.00000000000000	13.64123200000000	0.00000000000000	0.00000000000000	2.45830800000000	0.00000000000000	
6.80330700000000	-40.32725000000000	797.23916999999994	41.76675900000000	0.09341400000000	0.00000000000000	0.06896300000000	-9.78820700000000	49.59892000000000	6.61125900000000	0.32292200000000	0.00000000000000	-0.09265000000000	0.00000000000000	13.58637700000000	0.00000000000000	0.00000000000000	2.77218300000000	0.00000000000000	
6.80497000000000	-40.97888200000000	795.90855699999997	41.66740000000000	0.09260800000000	0.00000000000000	0.06891200000000	-10.49122300000000	55.53845700000000	7.19806000000000	0.32584000000000	0.00000000000000	-0.09282100000000	0.00000000000000	13.53148000000000	0.00000000000000	0.00000000000000	3.06880800000000	0.00000000000000	
6.80663800000000	-41.64664800000000	794.47057400000006	41.54773800000000	0.09180400000000	0.00000000000000	0.06885700000000	-11.05128500000000	61.30658100000000	7.71328400000000	0.32849300000000	0.00000000000000	-0.09298500000000	0.00000000000000	13.47666600000000	0.00000000000000	0.00000000000000	3.34355500000000	0.00000000000000	
6.80830100000000	-42.33076100000000	792.92316900000003	41.40749800000000	0.09100300000000	0.00000000000000	0.06879800000000	-11.46205600000000	66.86583100000000	8.15196700000000	0.33091200000000	0.00000000000000	-0.09314300000000	0.00000000000000	13.42205400000000	0.00000000000000	0.00000000000000	3.59355600000000	0.00000000000000	
6.80996700000000	-43.03135900000000	791.26425400000005	41.24644100000000	0.09020200000000	0.00000000000000	0.06873700000000	-11.72423200000000	72.20304100000000	8.51331700000000	0.33312300000000	0.00000000000000	-0.09329600000000	0.00000000000000	13.36776000000000	0.00000000000000	0.00000000000000	3.81764600000000	0.00000000000000	
6.81163500000000	-43.74849800000000	789.49169800000004	41.06437000000000	0.08940400000000	0.00000000000000	0.06867100000000	-11.84447700000000	77.32674700000000	8.80014200000000	0.33514700000000	0.00000000000000	-0.09344500000000	0.00000000000000	13.31389000000000	0.00000000000000	0.00000000000000	4.01617700000000	0.00000000000000	
6.81331200000000	-44.48215300000000	787.60332600000004	40.86113300000000	0.08860600000000	0.00000000000000	0.06860300000000	-11.83405400000000	82.26326400000001	9.01807300000000	0.33700500000000	0.00000000000000	-0.09359100000000	0.00000000000000	13.26054400000000	0.00000000000000	0.00000000000000	4.19074200000000	0.00000000000000	
6.81497300000000	-45.23221200000000	785.59692399999994	40.63661700000000	0.08781000000000	0.00000000000000	0.06853000000000	-11.70731300000000	87.05198100000000	9.17469400000000	0.33871000000000	0.00000000000000	-0.09373400000000	0.00000000000000	13.20781300000000	0.00000000000000	0.00000000000000	4.34383300000000	0.00000000000000	
6.81663700000000	-45.99847200000000	783.47023799999999	40.39075600000000	0.08701500000000	0.00000000000000	0.06845500000000	-11.48019700000000	91.74039800000000	9.27865900000000	0.34027900000000	0.00000000000000	-0.09387400000000	0.00000000000000	13.15578000000000	0.00000000000000	0.00000000000000	4.47849300000000	0.00000000000000	
6.81829900000000	-46.78064300000000	781.22097499999995	40.12352600000000	0.08622000000000	0.00000000000000	0.06837600000000	-11.16887100000000	96.37936999999999	9.33887700000000	0.34172100000000	0.00000000000000	-0.09401300000000	0.00000000000000	13.10452000000000	0.00000000000000	0.00000000000000	4.59797900000000	0.00000000000000	
6.81997400000000	-47.57833600000000	778.84680300000002	39.83495000000000	0.08542500000000	0.00000000000000	0.06829400000000	-10.78857400000000	101.01888000000000	9.36381700000000	0.34304900000000	0.00000000000000	-0.09415100000000	0.00000000000000	13.05409600000000	0.00000000000000	0.00000000000000	4.70546100000000	0.00000000000000	
6.82163800000000	-48.39107100000000	776.34535900000003	39.52509400000000	0.08463100000000	0.00000000000000	0.06820800000000	-10.35273500000000	105.70459800000000	9.36095900000000	0.34427000000000	0.00000000000000	-0.09428700000000	0.00000000000000	13.00456300000000	0.00000000000000	0.00000000000000	4.80378900000000	0.00000000000000	
6.82331100000000	-49.21826700000000	773.71424800000000	39.19407300000000	0.08383700000000	0.00000000000000	0.06811900000000	-9.87238700000000	110.47534400000001	9.33642000000000	0.34539300000000	0.00000000000000	-0.09442300000000	0.00000000000000	12.95596400000000	0.00000000000000	0.00000000000000	4.89531500000000	0.00000000000000	
6.82496900000000	-50.05924500000000	770.95104900000001	38.84204300000000	0.08304200000000	0.00000000000000	0.06802700000000	-9.35585900000000	115.36150499999999	9.29475100000000	0.34642500000000	0.00000000000000	-0.09455800000000	0.00000000000000	12.90833200000000	0.00000000000000	0.00000000000000	4.98179100000000	0.00000000000000	
6.82664000000000	-50.91322500000000	768.05331999999999	38.46920900000000	0.08224700000000	0.00000000000000	0.06793200000000	-8.80873500000000	120.38432800000000	9.23887500000000	0.34737200000000	0.00000000000000	-0.09469300000000	0.00000000000000	12.86168900000000	0.00000000000000	0.00000000000000	5.06433100000000	0.00000000000000	
6.82830300000000	-51.77932600000000	765.01859800000000	38.07581900000000	0.08145100000000	0.00000000000000	0.06783400000000	-8.23401500000000	125.55601500000000	9.17017200000000	0.34823900000000	0.00000000000000	-0.09482700000000	0.00000000000000	12.81604400000000	0.00000000000000	0.00000000000000	5.14341900000000	0.00000000000000	
